<svg width="177" height="40" viewBox="0 0 177 40" fill="none" xmlns="http://www.w3.org/2000/svg">
<path fill-rule="evenodd" clip-rule="evenodd" d="M151.337 0.358911C151.337 0.358911 157.944 -0.337353 159.106 14.496C159.557 14.1469 162.436 8.27669 167.274 8.27669C172.115 8.27669 173.125 15.5963 172.923 19.0325C172.721 22.4667 174.739 32.3733 176.255 35.9115C176.608 36.6568 177.21 39.6948 173.782 39.9929C170.354 40.293 168.588 30.9337 168.588 30.9337C167.639 26.0049 167.117 21.0016 167.027 15.9846C167.027 15.2393 166.774 13.7448 165.715 15.2884C164.656 16.8319 161.024 22.9041 161.024 22.9041C160.369 24.026 159.147 24.6967 157.846 24.6477C155.528 24.6477 154.065 21.6116 153.612 16.6338C153.416 13.4486 152.806 10.3008 151.796 7.27251C151.494 6.87436 151.392 5.97805 150.484 7.47256C148.058 11.5972 146.208 16.0356 144.988 20.6662C143.121 27.5838 141.558 34.8033 141.558 34.8033C141.558 34.8033 141.154 37.6413 138.732 37.6413C136.311 37.6413 135.454 35.8977 136.011 33.4598C136.566 31.02 139.489 17.7792 141.658 12.6994C143.827 7.62162 146.547 0.702139 151.337 0.353027V0.358911ZM114.319 16.9359C114.176 17.2203 114.288 17.5654 114.572 17.7106C114.588 17.7184 114.604 17.7243 114.621 17.7321C116.643 18.2833 118.728 18.5677 120.823 18.5794C123.951 18.5794 130.104 17.1849 130.104 12.8544C130.104 8.52187 127.179 5.63483 124.708 5.63483C122.237 5.63483 115.58 9.06319 114.319 16.93V16.9359ZM111.495 36.6489C111.495 36.6489 108.771 36.4999 108.469 34.3581C108.167 32.2183 107.661 25.8951 107.661 23.8534C107.661 21.8117 108.267 1.84755 124.657 0C126.02 0 135.754 1.54355 135.754 13.1937C135.754 23.2983 123.396 24.1927 121.329 24.1927C118.74 24.0652 116.161 23.7671 113.613 23.2964C113.611 26.3383 113.762 29.3784 114.066 32.4047C114.368 34.8033 114.017 36.3469 111.495 36.6489ZM90.0266 18.1362C90.0266 18.1362 93.2784 18.5108 93.2784 21.086C93.2784 23.365 91.0484 24.224 89.4578 24.224C87.8868 24.2005 86.6315 22.91 86.6531 21.339C86.6551 21.286 86.6551 21.235 86.659 21.1801C86.6551 19.4071 88.6987 18.1362 90.0207 18.1362H90.0266ZM50.1199 0.851223C50.1199 0.851223 55.4919 0.702164 56.096 9.21422V15.2629C56.096 15.2629 60.7874 9.6614 66.385 9.6614C71.9825 9.6614 73.4927 17.5753 72.9671 24.075C72.8867 27.5151 73.0397 30.9592 73.4202 34.3797C73.6261 35.9742 72.4983 37.4335 70.9018 37.6394C70.7842 37.6551 70.6645 37.6629 70.5468 37.6649C70.5468 37.6649 67.4441 37.1412 67.4441 34.3797C67.4441 31.6182 67.1401 28.9273 67.2224 26.0893C67.3028 23.2513 67.903 17.4262 66.4654 15.7846C65.0258 14.141 60.7148 18.6971 59.1262 20.3387C57.5375 21.9784 56.6314 23.4749 53.9072 23.4749C51.1829 23.4749 50.6533 19.8582 50.5023 18.0813C50.5023 18.0813 50.5396 9.99678 50.3925 8.87688C50.2434 7.75501 50.012 6.97049 49.7472 6.97049C49.4824 6.97049 47.4407 8.24337 45.7756 12.3464C43.3965 18.0519 41.647 23.9985 40.5566 30.0825C40.178 32.1379 40.7076 34.6759 37.4557 34.6013C34.2019 34.5248 34.6177 31.2044 34.6923 30.6022C34.7687 30.0021 36.4339 19.0286 39.3464 12.8328C42.259 6.63903 44.7439 1.2984 50.116 0.851223H50.1199ZM11.0292 15.4354C11.0292 15.4354 15.0636 15.6355 17.1367 15.9846C19.2098 16.3337 22.4832 16.93 22.4832 16.93C22.4832 16.93 22.4832 8.0178 18.5959 5.97805C18.0918 5.77995 16.3679 6.62528 14.7831 8.76506C13.267 10.8303 12.0059 13.0701 11.0292 15.4354ZM4.87459 15.9336C9.21299 1.64749 17.3328 0.203968 18.3919 0.203968C27.9238 1.44743 28.2259 15.3864 28.4279 18.5735C28.6319 21.7587 29.336 30.7709 29.538 32.1124C29.6655 33.7442 28.4455 35.1681 26.8157 35.2936C26.7823 35.2956 26.749 35.2976 26.7157 35.2995C24.8995 35.2995 23.8914 33.2578 23.7894 32.4615C23.6894 31.6652 23.1853 22.606 23.0343 22.5059C21.0259 22.0313 18.9842 21.7155 16.9268 21.5606C14.5046 21.4096 10.6212 21.0114 9.31106 20.8133C8.95802 21.4096 5.93173 32.7106 5.67872 33.7324C5.30019 35.3035 3.71546 36.2743 2.14249 35.8938C1.98951 35.8585 1.84045 35.8075 1.69532 35.7487C-0.775925 34.9014 0.183152 31.7143 0.183152 31.7143C0.183152 31.7143 0.538148 30.2237 4.87459 15.9336Z" fill="white"/>
</svg>
