<svg width="13" height="13" viewBox="0 0 13 13" fill="none" xmlns="http://www.w3.org/2000/svg">
<path d="M7.9021 6.50012L12.709 1.69322C13.097 1.30522 13.097 0.677237 12.709 0.290244C12.322 -0.0967481 11.693 -0.0967481 11.306 0.290244L6.49913 5.09615L1.69322 0.290244C1.30522 -0.0967481 0.677237 -0.0967481 0.290244 0.290244C-0.0967481 0.677237 -0.0967481 1.30622 0.290244 1.69322L5.09615 6.49913L0.290244 11.306C-0.0967481 11.694 -0.0967481 12.322 0.290244 12.709C0.679237 13.097 1.30622 13.097 1.69422 12.709L6.50012 7.9031L11.306 12.709C11.694 13.097 12.322 13.097 12.709 12.709C13.096 12.321 13.097 11.693 12.709 11.306L7.9021 6.50012Z" fill="white"/>
</svg>
