<svg width="109" height="82" viewBox="0 0 109 82" fill="none" xmlns="http://www.w3.org/2000/svg">
<g clip-path="url(#clip0)">
<path d="M9.58831 14.6634C9.95474 15.3058 8.98982 15.9654 8.62137 15.3076C7.0624 12.6246 4.05312 13.128 2.35431 15.3741C1.99075 15.8136 1.78192 16.3605 1.76005 16.9305C1.73819 17.5004 1.9045 18.0617 2.23332 18.5278C2.45194 18.8382 2.73013 19.1021 3.05171 19.304C3.37329 19.5058 3.73181 19.6417 4.10642 19.7037C4.48102 19.7657 4.86421 19.7525 5.23368 19.665C5.60314 19.5774 5.9515 19.4173 6.25845 19.1938C6.01757 18.9115 5.7767 18.6292 5.54923 18.3295C5.07886 17.7321 6.06122 17.0858 6.51616 17.6853L7.20262 18.6153C7.51864 18.3476 7.80541 18.0471 8.05813 17.719C8.49656 17.1125 9.36741 17.8929 8.92696 18.4839C8.63613 18.8697 8.31 19.2275 7.95279 19.5527C19.5333 33.6021 34.4256 42.9822 51.0623 50.3456C67.2965 57.5106 85.2756 57.9833 102.633 60.4201C95.8164 57.8443 88.4748 55.5724 83.9683 49.6663C83.5133 49.0669 84.4957 48.4207 84.9352 49.0221C89.8967 55.5276 98.8728 57.8211 106.494 60.7937C108.32 61.4336 105.881 62.0978 105.881 62.0978C105.881 62.0978 101.208 63.6816 99.0535 64.4811C92.8281 66.7858 86.825 69.8302 80.4607 71.7922C80.312 71.8324 80.1534 71.8119 80.0198 71.7353C79.8862 71.6586 79.7885 71.532 79.7482 71.3833C79.708 71.2346 79.7284 71.076 79.8051 70.9424C79.8818 70.8088 80.0084 70.7111 80.1571 70.6708C88.1511 68.2133 95.6315 64.3482 103.57 61.7096C85.1868 58.9834 66.5087 58.4452 49.3125 50.7627C32.9696 43.4864 18.4201 33.9673 7.06499 20.2023C6.37118 20.677 5.54965 20.93 4.70897 20.9279C3.86829 20.9258 3.04804 20.6687 2.35662 20.1904C1.60942 19.7404 1.05051 19.0349 0.783284 18.2045C0.516055 17.3742 0.558574 16.4751 0.902998 15.6737C1.26181 14.8368 1.81507 14.0976 2.51687 13.5174C3.21866 12.9371 4.04874 12.5327 4.93817 12.3376C5.86112 12.1607 6.81661 12.2927 7.65709 12.713C8.49756 13.1334 9.17624 13.8188 9.58831 14.6634Z" fill="#D61E3D"/>
</g>
<defs>
<clipPath id="clip0">
<rect width="68.7617" height="100" fill="white" transform="matrix(-0.129678 -0.991556 -0.991556 0.129678 108.072 68.181)"/>
</clipPath>
</defs>
</svg>
